PathFileType	4	(X/Y/Z)	Walk2.trc
DataRate	CameraRate	NumFrames	NumMarkers	Units	OrigDataRate	OrigDataStartFrame	OrigNumFrames
200.000000	200.000000	6	67	mm	200.000000	745	955
Frame#	Times		LBHD		LowerBodyModelVer		LWRR		RLFC		LElbow		RTH2		RToe		LACR1		RMT5		C7		RTB2		LCAR		LUA1		RTB3		RMT1		RTB4		LWRU		RMMAL		LToe		RCAR		RCAL		LTH3		RASI		RFA1		LASI		PELOrigin		LLFC		RElbow		RElbowM		LPSI		RTH3		LTB2		RPSI		LHJC		MidPelvis		OPelvis		RHJC		SACR		XPelvis		YPelvis		ZPelvis		LFHD		LMMAL		LCAL		RBHD		RUA1		LMT5		T10		STRN		RACR1		LTH2		RMFC		RLMAL		RKJC		LLMAL		RFHD		CLAV		LTH4		RWRR		LTB1		LTH1		LTB3		LTB4		RTB1		LMT1		RTH1		RTH4
			X1	Y1	Z1	X2	Y2	Z2	X3	Y3	Z3	X4	Y4	Z4	X5	Y5	Z5	X6	Y6	Z6	X7	Y7	Z7	X8	Y8	Z8	X9	Y9	Z9	X10	Y10	Z10	X11	Y11	Z11	X12	Y12	Z12	X13	Y13	Z13	X14	Y14	Z14	X15	Y15	Z15	X16	Y16	Z16	X17	Y17	Z17	X18	Y18	Z18	X19	Y19	Z19	X20	Y20	Z20	X21	Y21	Z21	X22	Y22	Z22	X23	Y23	Z23	X24	Y24	Z24	X25	Y25	Z25	X26	Y26	Z26	X27	Y27	Z27	X28	Y28	Z28	X29	Y29	Z29	X30	Y30	Z30	X31	Y31	Z31	X32	Y32	Z32	X33	Y33	Z33	X34	Y34	Z34	X35	Y35	Z35	X36	Y36	Z36	X37	Y37	Z37	X38	Y38	Z38	X39	Y39	Z39	X40	Y40	Z40	X41	Y41	Z41	X42	Y42	Z42	X43	Y43	Z43	X44	Y44	Z44	X45	Y45	Z45	X46	Y46	Z46	X47	Y47	Z47	X48	Y48	Z48	X49	Y49	Z49	X50	Y50	Z50	X51	Y51	Z51	X52	Y52	Z52	X53	Y53	Z53	X54	Y54	Z54	X55	Y55	Z55	X56	Y56	Z56	X57	Y57	Z57	X58	Y58	Z58	X59	Y59	Z59	X60	Y60	Z60	X61	Y61	Z61	X62	Y62	Z62	X63	Y63	Z63	X64	Y64	Z64	X65	Y65	Z65	X66	Y66	Z66	X67	Y67	Z67

745	3.725	-93.73	1584	-9.391	9	2014	4	77.883	823.27	-215.77	72.245	520.51	178.63	-68.688	1063.1	-248.57	80.74	677.02	161.02	357.29	69.115	149.39	-37.013	1399.9	-115.33	271.76	33.865	178.35	-126.97	1452.9	56.129	149.7	296.41	170.75	-9.9627	933.12	-240.29	-46.352	1200.3	-201.47	173.14	209.27	98.678	312.65	52.223	109.49	162.94	297.65	97.349	149.24	836.78	-195.34	184.35	75.974	74.542	-204.88	29.425	-17.461	-62.557	761.54	313.85	107.72	27.802	86.872	-164.51	556.55	-89.466	-15.482	962.21	188.77	-139.51	904.39	325.65	-26.562	1015.1	-118.5	-21.022	988.68	35.136	-199.02	496.61	-77.856	-156.39	1065.3	328.83	-192.37	1074.1	251.68	-217.12	1011.9	14.986	55.895	562.02	181.24	-254.76	280.76	-62.861	-214.58	1011.8	83.923	-109.97	917.83	-81.567	-118.43	1000.3	42.295	-21.022	988.68	35.136	-102.43	881.84	127.37	-215.85	1011.8	49.455	58.266	979.03	30.616	-10.756	1066.9	48.244	-18.181	975.11	113.93	84.258	1619	15.211	-380.7	79.916	36.787	-472.3	62.028	1.1532	-88.247	1577.8	127.29	-68.497	1218.3	291.79	-298.68	22.615	-74.822	-202.26	1197	53.26	-7.4377	1173.8	38.941	-147.07	1342.3	204.03	-84.575	638.91	-60.986	62.959	481.62	53.88	153.16	65.948	150.97	67.602	501.06	116.26	-403.7	78.008	-46.716	86.814	1617.2	90.026	21.324	1378.6	47.153	-139.99	646.43	-107.85	-57.939	805.76	263.34	-209.24	361.48	8.0909	-116.82	734.5	-127.17	-300.53	200.22	8.2632	-255.56	281.31	9.2432	149.95	394.41	99.702	-258.13	29.143	6.1582	-12.349	735.71	219.45	25.51	649.07	203.1
746	3.73	-88.101	1583.9	-8.5033	9	2014	4	81.687	822.7	-215.25	78.334	520.97	178.83	-63.961	1063.2	-247.79	86.963	677.48	160.91	358.91	65.654	148.62	-31.202	1399.9	-114.56	272.85	31.774	178.37	-121.17	1452.8	56.967	153.88	296.07	170.88	-5.7582	932.93	-239.62	-41.079	1200.3	-200.66	175.89	208.69	98.687	313.77	49.424	109.09	166.6	297.14	97.379	153.11	835.98	-194.89	185.66	75.35	74.549	-204.78	29.108	-17.329	-56.863	760.89	314.38	108.17	28.544	87.161	-158.47	556.12	-88.986	-9.6541	962.15	189.15	-133.63	903.85	326.1	-20.36	1015.1	-117.84	-15.007	988.63	35.656	-193.11	496.34	-77.321	-150.27	1064.7	329.2	-186.37	1073.6	252.06	-211.29	1011.8	15.25	61.989	562.54	181.47	-251.06	281.07	-62.685	-208.76	1012.1	84.21	-103.8	917.94	-81.057	-112.52	1000.3	42.693	-15.007	988.63	35.656	-96.521	881.91	127.69	-210.02	1012	49.73	64.279	978.94	31.218	-4.7042	1066.9	48.798	-12.259	975.04	114.44	89.877	1619.1	16.043	-379.59	81.884	36.604	-471.4	65.363	0.94546	-82.552	1577.7	128.18	-62.545	1217.9	292.36	-298.61	22.82	-74.543	-196.43	1196.9	53.743	-1.4084	1173.6	39.669	-141.25	1341.9	204.72	-78.667	638.61	-60.463	68.187	481.88	54.347	154.63	65.715	151.1	73.26	501.43	116.59	-402.58	80.249	-46.905	92.46	1617.3	90.864	27.126	1378.6	47.992	-134.13	646.07	-107.29	-52.196	805.09	263.86	-204.64	361.13	8.4225	-111.13	734.16	-126.56	-298	201.08	8.3172	-251.97	281.58	9.4647	154.64	394.03	99.742	-257.96	29.074	6.0786	-6.1364	736.31	219.37	31.586	649.61	203.06
747	3.735	-82.449	1584	-7.6142	9	2014	4	85.328	822.16	-214.75	84.416	521.5	179.04	-59.29	1063.3	-246.98	93.127	678.02	160.76	360.36	62.439	147.94	-25.36	1400	-113.78	273.81	29.929	178.49	-115.35	1452.8	57.799	157.91	295.78	171.03	-1.6765	932.81	-238.94	-35.818	1200.4	-199.84	178.53	208.18	98.718	314.75	46.858	108.74	170.16	296.68	97.441	156.82	835.15	-194.48	186.81	74.828	74.55	-204.68	28.78	-17.183	-51.141	760.32	314.94	108.58	29.23	87.447	-152.15	555.71	-88.502	-3.8512	962.2	189.53	-127.71	903.38	326.55	-14.19	1015.2	-117.15	-9.0208	988.7	36.191	-186.89	496.08	-76.791	-144.12	1064.3	329.54	-180.33	1073.3	252.42	-205.49	1011.9	15.495	68.091	563.16	181.74	-247.13	281.46	-62.544	-202.97	1012.4	84.482	-97.642	918.13	-80.518	-106.62	1000.4	43.09	-9.0208	988.7	36.191	-90.611	882.1	128.03	-204.23	1012.1	49.989	70.266	978.96	31.837	1.3043	1066.9	49.36	-6.3646	975.08	114.98	95.518	1619.3	16.882	-378.32	84.036	36.395	-470.33	68.987	0.74316	-76.839	1577.7	129.08	-56.56	1217.6	292.91	-298.51	23.086	-74.263	-190.59	1196.9	54.214	4.6115	1173.5	40.417	-135.42	1341.7	205.42	-72.555	638.38	-59.92	73.38	482.22	54.819	155.93	65.541	151.22	78.898	501.86	116.93	-401.3	82.685	-47.107	98.126	1617.4	91.71	32.942	1378.6	48.842	-128.07	645.74	-106.72	-46.421	804.47	264.38	-199.75	360.8	8.7101	-105.29	733.87	-125.92	-295.26	202.05	8.3414	-248.12	281.93	9.6524	159.23	393.71	99.813	-257.78	28.998	5.9891	0.11348	737	219.36	37.697	650.24	203.06
748	3.74	-76.777	1584.1	-6.7258	9	2014	4	88.803	821.65	-214.27	90.463	522.08	179.26	-54.675	1063.6	-246.14	99.222	678.62	160.58	361.66	59.482	147.33	-19.491	1400.1	-112.99	274.64	28.336	178.69	-109.51	1453	58.621	161.79	295.53	171.2	2.2835	932.76	-238.24	-30.569	1200.6	-199.01	181.05	207.73	98.762	315.59	44.535	108.44	173.6	296.29	97.526	160.38	834.33	-194.11	187.82	74.398	74.536	-204.6	28.444	-17.021	-45.391	759.83	315.5	108.95	29.852	87.726	-145.54	555.31	-88.011	1.9246	962.38	189.93	-121.76	903	327	-8.0551	1015.4	-116.44	-3.0652	988.86	36.742	-180.35	495.84	-76.27	-137.92	1064	329.87	-174.24	1073	252.77	-199.72	1012.1	15.726	74.174	563.87	182.07	-242.96	281.92	-62.44	-197.2	1012.7	84.744	-91.494	918.42	-79.951	-100.76	1000.6	43.488	-3.0652	988.86	36.742	-84.708	882.39	128.38	-198.46	1012.4	50.235	76.223	979.11	32.473	7.2673	1067.1	49.932	-0.49877	975.24	115.53	101.18	1619.5	17.727	-376.87	86.374	36.158	-469.05	72.91	0.5406	-71.112	1577.8	129.97	-50.546	1217.3	293.43	-298.37	23.422	-73.985	-184.77	1197	54.678	10.621	1173.5	41.186	-129.59	1341.5	206.11	-66.229	638.23	-59.354	78.527	482.64	55.283	157.06	65.421	151.32	84.495	502.36	117.27	-399.86	85.321	-47.328	103.81	1617.6	92.563	38.764	1378.8	49.701	-121.79	645.43	-106.13	-40.612	803.94	264.92	-194.56	360.5	8.952	-99.316	733.62	-125.25	-292.29	203.14	8.3324	-244.02	282.34	9.8034	163.72	393.44	99.907	-257.59	28.913	5.8922	6.3864	737.79	219.41	43.822	650.94	203.11
749	3.745	-71.088	1584.3	-5.8403	9	2014	4	92.113	821.16	-213.83	96.442	522.68	179.48	-50.113	1063.9	-245.28	105.24	679.26	160.4	362.83	56.786	146.78	-13.601	1400.3	-112.2	275.36	26.995	178.93	-103.66	1453.2	59.432	165.51	295.31	171.36	6.124	932.78	-237.53	-25.333	1200.8	-198.17	183.44	207.34	98.806	316.31	42.454	108.18	176.93	295.94	97.62	163.78	833.49	-193.78	188.68	74.049	74.501	-204.55	28.107	-16.839	-39.612	759.42	316.08	109.28	30.404	87.991	-138.64	554.91	-87.51	7.6712	962.67	190.34	-115.77	902.71	327.45	-1.9546	1015.6	-115.72	2.8583	989.14	37.31	-173.49	495.6	-75.757	-131.69	1063.7	330.19	-168.1	1072.8	253.09	-193.97	1012.3	15.945	80.204	564.64	182.42	-238.54	282.46	-62.374	-191.45	1013.2	84.999	-85.362	918.78	-79.358	-94.927	1000.9	43.891	2.8583	989.14	37.31	-78.817	882.78	128.76	-192.71	1012.7	50.472	82.151	979.38	33.128	13.183	1067.4	50.512	5.3364	975.51	116.1	106.87	1619.8	18.574	-375.22	88.9	35.887	-467.55	77.135	0.33152	-65.372	1578	130.87	-44.504	1217.1	293.94	-298.19	23.837	-73.712	-178.95	1197.2	55.138	16.618	1173.6	41.976	-123.75	1341.5	206.8	-59.681	638.14	-58.763	83.614	483.11	55.728	158.03	65.354	151.38	90.028	502.89	117.6	-398.23	88.158	-47.571	109.52	1617.9	93.42	44.587	1379	50.564	-115.29	645.14	-105.53	-34.769	803.48	265.47	-189.06	360.21	9.1477	-93.189	733.42	-124.55	-289.09	204.34	8.2875	-239.64	282.83	9.9149	168.09	393.2	100.01	-257.39	28.819	5.7914	12.661	738.65	219.52	49.934	651.69	203.21
750	3.75	-65.382	1584.6	-4.9598	9	2014	4	95.26	820.72	-213.41	102.32	523.29	179.7	-45.601	1064.3	-244.4	111.16	679.93	160.23	363.88	54.346	146.27	-7.6972	1400.7	-111.4	275.98	25.897	179.21	-97.807	1453.5	60.23	169.07	295.13	171.52	9.8482	932.88	-236.81	-20.11	1201.2	-197.33	185.71	207	98.841	316.92	40.608	107.92	180.14	295.63	97.71	167.03	832.65	-193.49	189.4	73.767	74.439	-204.52	27.774	-16.632	-33.804	759.1	316.68	109.57	30.882	88.238	-131.44	554.51	-86.999	13.387	963.09	190.77	-109.74	902.5	327.9	4.1102	1015.9	-114.98	8.7486	989.51	37.894	-166.29	495.36	-75.255	-125.43	1063.5	330.49	-161.91	1072.6	253.39	-188.26	1012.6	16.158	86.148	565.45	182.78	-233.86	283.07	-62.348	-185.73	1013.7	85.253	-79.248	919.21	-78.743	-89.124	1001.3	44.3	8.7486	989.51	37.894	-72.94	883.27	129.17	-187	1013.1	50.706	88.046	979.76	33.802	19.051	1067.7	51.102	11.139	975.89	116.69	112.57	1620.2	19.422	-373.35	91.612	35.578	-465.8	81.666	0.10942	-59.623	1578.2	131.75	-38.438	1217.1	294.43	-297.95	24.342	-73.448	-173.14	1197.5	55.599	22.6	1173.9	42.787	-117.91	1341.5	207.49	-52.905	638.11	-58.147	88.62	483.64	56.145	158.85	65.335	151.41	95.469	503.47	117.92	-396.39	91.199	-47.841	115.24	1618.2	94.279	50.405	1379.3	51.429	-108.56	644.88	-104.9	-28.891	803.1	266.03	-183.24	359.95	9.2982	-86.904	733.24	-123.82	-285.63	205.66	8.2041	-234.98	283.38	9.9852	172.34	393	100.11	-257.2	28.718	5.6904	18.91	739.55	219.69	56.003	652.48	203.36
